<svg width="862" height="128" viewBox="0 0 862 128" fill="none" xmlns="http://www.w3.org/2000/svg">
<g clip-path="url(#clip0_7596_6614)">
<path d="M835.372 102.678C851.3 102.678 861.998 94.7737 861.998 83.1842C861.998 72.2246 854.224 67.1371 844.037 64.7122L833.078 62.1684C825.946 60.5043 822.118 57.8298 822.118 52.7423C822.118 47.3932 827.848 43.1853 836.644 43.1853C845.44 43.1853 851.419 48.0232 852.703 55.4168L861.748 52.873C859.205 41.2835 849.398 34.401 836.656 34.401C821.619 34.401 812.835 42.4246 812.835 52.7542C812.835 64.3437 820.989 68.8012 830.665 70.9646L841.494 73.3895C848.887 75.0537 852.322 78.0967 852.322 83.1961C852.322 89.3177 846.331 93.7753 835.883 93.7753C826.968 93.7753 819.586 89.3177 817.411 80.4027L808.116 82.9464C810.921 94.2864 820.086 102.69 835.372 102.69M751.38 62.7984C753.033 51.72 760.426 43.1853 773.038 43.1853C785.65 43.1853 793.673 51.72 793.673 62.7984H751.38ZM773.418 102.678C786.149 102.678 796.217 96.5686 801.186 87.3921L793.673 82.5542C789.085 90.0666 782.203 93.6326 773.418 93.6326C759.915 93.6326 752.391 84.7176 751.119 71.7254H803.218L803.468 67.2678C804.49 49.307 792.889 34.401 773.014 34.401C755.945 34.401 741.17 47.0129 741.17 67.9097C741.17 88.8066 753.663 102.69 773.406 102.69M634.498 101.026H644.566V62.8103C644.566 51.4704 651.698 43.6965 661.386 43.6965C671.074 43.6965 678.336 50.0678 678.336 60.7658V101.026H688.393V62.8103C688.393 50.3293 696.036 43.6965 705.343 43.6965C715.28 43.6965 721.901 50.0678 721.901 60.8966V101.026H731.969V58.852C731.969 45.4676 723.042 34.3892 708.279 34.3892C697.961 34.3892 691.84 40.1186 689.177 47.001H686.372C683.448 40.2493 676.316 34.3892 665.867 34.3892C655.419 34.3892 649.178 40.3801 647.134 47.001H644.59V36.0414H634.522V101.014L634.498 101.026ZM567.564 68.5278C567.564 54.0023 577.382 43.435 591.005 43.435C604.627 43.435 614.445 54.0141 614.445 68.5278C614.445 83.0415 604.639 93.6207 591.005 93.6207C577.37 93.6207 567.564 83.5646 567.564 68.5278ZM591.016 102.678C610.641 102.678 624.775 88.664 624.775 68.5397C624.775 48.4155 610.629 34.401 591.016 34.401C571.403 34.401 557.258 48.5463 557.258 68.5397C557.258 88.5332 571.403 102.678 591.016 102.678ZM534.852 101.026H545.169V11.84H534.852V50.8166H487.459V11.84H477.142V101.014H487.459V60.5043H534.852V101.014V101.026ZM415.747 60.5043C417.91 51.8389 424.281 46.4899 433.327 46.4899C442.373 46.4899 449.255 53.2415 449.636 60.5043H415.747ZM433.707 102.678C446.581 102.678 455.745 96.949 461.225 88.5332L449.636 80.6285C446.83 85.0861 440.721 88.7828 433.707 88.7828C424.151 88.7828 417.149 83.303 415.366 73.3657H464.922L465.053 65.3422C465.302 48.6532 453.202 33.3669 433.327 33.3669C413.453 33.3669 399.688 47.8925 399.688 67.7671C399.688 88.664 414.213 102.678 433.707 102.678ZM343.333 68.0286C343.333 56.439 351.356 47.9044 361.805 47.9044C372.253 47.9044 380.395 55.7972 380.395 68.0286C380.395 80.26 372.241 88.1528 361.805 88.1528C351.368 88.1528 343.333 80.5097 343.333 68.0286ZM367.023 33.3669C357.347 33.3669 349.193 38.7159 346.637 47.631H343.963V35.0192H328.165V127.759H343.963V88.4025H346.518C349.324 97.3175 356.705 102.667 367.023 102.667C384.853 102.667 396.573 87.6298 396.573 68.0167C396.573 48.4036 384.853 33.3669 367.023 33.3669ZM273.902 81.0208C273.902 75.2914 278.241 72.6169 284.351 72.6169H300.909V74.2691C300.909 82.5542 295.94 89.6862 284.6 89.6862C278.36 89.6862 273.902 86.1202 273.902 81.0208ZM280.654 102.678C291.233 102.678 298.365 97.1986 299.637 88.1528H302.181V91.077C302.181 96.9371 305.996 101.014 312.499 101.014H321.794V88.2717H319.749C317.705 88.2717 316.433 87.4991 316.433 85.2168V59.1017C316.433 46.1095 306.745 33.3669 287.774 33.3669C274.14 33.3669 264.072 40.3682 260.767 52.4808L274.913 56.439C275.804 52.1004 279.62 46.8821 287.786 46.8821C295.952 46.8821 300.909 52.1004 300.909 59.1136V60.7658H282.306C267.27 60.7658 257.843 69.1816 257.843 81.4012C257.843 94.3934 267.911 102.678 280.654 102.678ZM191.646 101.026H207.562V62.6796C207.562 54.656 213.173 48.6651 221.446 48.6651C229.089 48.6651 234.688 54.2757 234.688 62.0496V101.038H250.616V56.4509C250.616 44.2195 243.223 33.3907 228.578 33.3907C219.021 33.3907 212.27 39.1201 210.106 47.6547H207.562V5.46875H191.646V101.014V101.026ZM148.355 102.678C170.274 102.678 182.244 89.9358 182.244 75.541C182.244 61.1462 173.578 52.8611 158.423 49.0455L144.919 45.7291C138.548 44.065 133.841 41.3904 133.841 35.5303C133.841 30.1813 138.94 25.2126 148.485 25.2126C158.031 25.2126 163.772 30.6924 165.044 36.9329L180.461 32.6061C177.537 18.7225 165.174 10.1878 148.485 10.1878C128.991 10.1878 117.402 22.0388 117.402 35.5422C117.402 51.3396 129.122 58.3409 140.973 61.2769L154.476 64.4626C161.097 66.1148 165.567 69.4312 165.567 75.541C165.567 82.2927 159.314 87.2613 148.367 87.2613C137.419 87.2613 130.655 81.4012 129.003 72.9973L113.717 77.5855C116.772 92.3607 129.134 102.678 148.367 102.678" fill="#ED5650"/>
<path d="M54.9325 85.7502H46.9565V52.8953L42.8081 49.567L38.6596 52.8953V85.7502H30.6836V49.0677L42.8081 39.3325L54.9325 49.0677V85.7502Z" fill="#ED5650"/>
<path d="M23.3002 85.7494H15.3242V41.6972L42.8182 19.6592L70.2885 41.7091V85.7494H62.3125V45.5366L42.8182 29.8818L23.3121 45.5247L23.3002 85.7494Z" fill="#ED5650"/>
<path d="M42.8041 0L0 34.3526V85.7508H7.97599V38.1802L42.8041 10.2345L77.6203 38.1802V97.8991H85.5963V34.3526L42.8041 0Z" fill="#ED5650"/>
<path d="M22.9205 77.7749H1.17969V85.7509H22.9205V77.7749Z" fill="#ED5650"/>
<path d="M69.8326 77.7749H48.0918V85.7509H69.8326V77.7749Z" fill="#ED5650"/>
<path d="M85.6082 93.0361H0V101.012H85.6082V93.0361Z" fill="#ED5650"/>
</g>
<defs>
<clipPath id="clip0_7596_6614">
<rect width="862.002" height="127.77" fill="white"/>
</clipPath>
</defs>
</svg>
