<svg width="304" height="41" viewBox="0 0 304 41" fill="none" xmlns="http://www.w3.org/2000/svg">
<g clip-path="url(#clip0_1190_1406)">
<path fill-rule="evenodd" clip-rule="evenodd" d="M16.3884 6.85744L15.8061 6.52469L15.8338 6.53855L15.8477 6.45536V6.23352C15.8477 5.95623 15.5843 5.6512 15.0851 5.30458C13.4491 4.16766 11.4941 3.58534 9.27577 3.58534C8.29137 3.58534 7.41788 3.71012 6.68305 3.94583C6.15618 4.12607 5.72637 4.3895 5.39362 4.74999C5.06086 5.09661 4.90835 5.47096 4.90835 5.8869C4.90835 6.55242 5.31043 6.99609 6.12845 7.24566C6.57213 7.37044 7.5288 7.50909 8.99847 7.6616L11.203 7.88344C12.5201 8.02209 13.6016 8.2162 14.4196 8.46576C15.2376 8.71533 15.9725 9.06195 16.6103 9.50563C17.2619 9.97703 17.7888 10.6009 18.1631 11.3635C18.5375 12.1399 18.7316 12.958 18.7316 13.8315C18.7316 15.2041 18.274 16.438 17.3867 17.5056C16.5825 18.4762 15.3208 19.1971 13.6432 19.6686C12.3954 20.0152 11.0366 20.1954 9.62239 20.1954C7.0574 20.1954 4.50627 19.5854 2.02446 18.3514C1.31735 18.0325 1.16484 18.0048 1.13711 18.0048C1.09552 18.0048 0.970732 18.0325 0.637976 18.2821L0.568651 18.3375L-0.0136719 18.0325L2.17697 13.0828L2.77316 13.3739V13.6373C2.77316 14.0256 2.96727 14.3722 3.34162 14.7049C3.93781 15.2457 4.86675 15.7032 6.12845 16.0914C7.39015 16.4796 8.59639 16.6737 9.73331 16.6737C10.9673 16.6737 12.021 16.4658 12.8806 16.0498C13.352 15.8141 13.7264 15.523 14.0037 15.1486C14.281 14.7881 14.4196 14.3999 14.4196 14.0117C14.4196 13.4294 14.1146 13.0134 13.4768 12.7639C13.0193 12.5836 12.0487 12.4034 10.6068 12.2509L8.43001 12.029C6.93261 11.8765 5.92048 11.7379 5.32429 11.5992C4.7281 11.4606 4.10419 11.2387 3.49413 10.9337C2.62065 10.5039 1.92741 9.83838 1.42827 8.97876C0.984596 8.20233 0.748894 7.30112 0.748894 6.30285C0.748894 4.65293 1.33122 3.26645 2.46813 2.18499C3.95167 0.770779 6.19778 0.049808 9.12326 0.0636728C10.3572 0.0636728 11.5357 0.188456 12.5895 0.438023C13.6709 0.68759 15.0158 1.15899 16.5825 1.82451C17.2896 2.11567 17.4838 2.1434 17.5392 2.1434C17.7056 2.1434 17.9136 2.04634 18.1493 1.85224L18.2186 1.79678L18.8009 2.1018L16.3884 6.85744ZM35.8958 4.50039L35.7988 4.47266H35.7849V3.84875H41.6081V4.47266L41.5111 4.50039C41.2061 4.59745 40.9842 4.70837 40.8733 4.83315C40.7624 4.95793 40.7069 5.15204 40.7069 5.41547V18.2543C40.7069 18.5177 40.7624 18.698 40.8733 18.8366C40.9842 18.9753 41.1922 19.0862 41.5111 19.1833L41.6081 19.211V19.8349H35.7849V19.211L35.882 19.1833C36.187 19.1139 36.395 19.003 36.5197 18.8644C36.6445 18.7257 36.7 18.5177 36.7 18.2682V12.9857H28.1315V18.2543C28.1315 18.5177 28.187 18.698 28.2979 18.8366C28.4088 18.9753 28.6168 19.0862 28.9357 19.1833L29.0327 19.211V19.8349H23.1956V19.211L23.2927 19.1833C23.5977 19.1139 23.8057 19.003 23.9305 18.8644C24.0414 18.7257 24.0969 18.5316 24.0969 18.2682V5.40161C24.0969 5.15204 24.0414 4.95793 23.9305 4.83315C23.8057 4.6945 23.5977 4.58358 23.2788 4.48653L23.1956 4.4588V3.83488H29.0327V4.4588L28.9357 4.48653C28.6307 4.56972 28.4088 4.68064 28.2979 4.81928C28.187 4.94407 28.1315 5.15204 28.1315 5.40161V9.87995H36.7V5.40161C36.7 5.15204 36.6584 4.95793 36.5475 4.83315C36.4366 4.70837 36.2147 4.59745 35.8958 4.50039ZM62.0036 15.953C61.9204 16.2719 61.8094 16.4798 61.6708 16.5908C61.546 16.7017 61.338 16.7571 61.0885 16.7571H51.2028V13.1662H57.0399C57.3034 13.1662 57.5113 13.2216 57.6361 13.3325C57.7748 13.4573 57.8857 13.6653 57.9689 13.9703L57.9966 14.0674H58.6067V9.25627H58.0105L57.9828 9.33946C57.8857 9.65835 57.7748 9.86632 57.6361 9.97724C57.5113 10.0882 57.3172 10.1436 57.0538 10.1436H51.2167V6.92697H60.6864C60.9498 6.92697 61.1578 6.98243 61.2826 7.09335C61.4212 7.20427 61.5322 7.42611 61.6153 7.73113L61.6431 7.82819H62.2393V2.92004H61.6431L61.6153 3.01709C61.5322 3.32212 61.4212 3.54395 61.2826 3.65487C61.1439 3.76579 60.9498 3.82125 60.6864 3.82125H46.2947V4.44517L46.3779 4.4729C46.6968 4.56995 46.9047 4.68087 47.0295 4.81952C47.1404 4.9443 47.1959 5.13841 47.1959 5.38798V18.2545C47.1959 18.518 47.1404 18.7121 47.0295 18.8507C46.9047 18.9894 46.6968 19.1003 46.3917 19.1696L46.2947 19.1974V19.8213H61.1162C61.3796 19.8213 61.5737 19.8767 61.7124 19.9876C61.851 20.1124 61.962 20.3204 62.0313 20.6254L62.059 20.7225H62.6829V15.8143H62.059L62.0313 15.9114L62.0036 15.953ZM82.6902 17.159C83.2171 17.9077 83.6469 18.4346 83.9658 18.698L83.9935 18.6841C84.2985 18.9476 84.6451 19.1139 85.0334 19.1971H85.1443V19.8349H78.2534V19.211L78.3505 19.1833C78.9883 19.003 78.9883 18.7534 78.9883 18.6703C78.9883 18.5593 78.919 18.3098 78.5585 17.8106L75.4528 13.36H71.8756V18.2543C71.8756 18.5039 71.9311 18.698 72.042 18.8366C72.1529 18.9753 72.3609 19.0862 72.6798 19.1833L72.7768 19.211V19.8349H66.9397V19.211L67.0368 19.1833C67.3418 19.1139 67.5498 19.003 67.6746 18.8644C67.7855 18.7257 67.841 18.5316 67.841 18.2682V5.40161C67.841 5.15204 67.7855 4.95793 67.6746 4.83315C67.5498 4.6945 67.3418 4.58358 67.0229 4.48653L66.9259 4.4588V3.83488H77.38C78.7249 3.83488 79.7647 3.90421 80.4718 4.04285C81.1928 4.19537 81.8306 4.44493 82.399 4.80542C83.5637 5.56799 84.1599 6.81582 84.1599 8.53506C84.1599 9.83836 83.7994 10.8782 83.0784 11.6131C82.399 12.3202 81.3037 12.847 79.8202 13.1659L82.6902 17.159ZM77.4354 10.2682C78.2673 10.2682 78.8912 10.1711 79.2933 9.99087C79.834 9.75517 80.0975 9.31149 80.0975 8.60439C80.0975 7.98047 79.9172 7.55066 79.5429 7.31495C79.1547 7.06539 78.4476 6.9406 77.4354 6.9406H71.8756V10.2682H77.4354ZM105.983 18.698C105.664 18.4346 105.234 17.9077 104.707 17.159L101.837 13.1659C103.307 12.847 104.402 12.3202 105.096 11.6131C105.816 10.8782 106.177 9.83836 106.177 8.53506C106.177 6.81582 105.581 5.55412 104.416 4.80542C103.848 4.44493 103.196 4.19537 102.489 4.04285C101.782 3.90421 100.742 3.83488 99.3971 3.83488H88.943V4.4588L89.0262 4.48653C89.3451 4.58358 89.553 4.6945 89.6778 4.83315C89.7887 4.95793 89.8442 5.15204 89.8442 5.40161V18.2682C89.8442 18.5316 89.7887 18.7257 89.6639 18.8644C89.5392 19.003 89.3312 19.1139 89.0262 19.1833L88.9291 19.211V19.8349H94.7523V19.211L94.6692 19.1833C94.3503 19.0862 94.1423 18.9753 94.0314 18.8366C93.9204 18.7119 93.865 18.5039 93.865 18.2543V13.36H97.4421L100.548 17.8106C100.908 18.2959 100.978 18.5593 100.978 18.6703C100.978 18.7534 100.978 19.003 100.34 19.1833L100.243 19.211V19.8349H107.12V19.1971H107.023C106.635 19.1139 106.288 18.9476 105.983 18.6841V18.698ZM101.283 9.99087C100.881 10.1711 100.257 10.2682 99.4248 10.2682H93.865V6.9406H99.4248C100.437 6.9406 101.144 7.06539 101.532 7.31495C101.893 7.55066 102.087 7.98047 102.087 8.60439C102.087 9.31149 101.823 9.75517 101.283 9.99087ZM111.03 4.50052L110.933 4.47279H110.947V3.84887H116.784V4.47279L116.687 4.50052C116.368 4.58371 116.146 4.69463 116.035 4.83328C115.924 4.95806 115.869 5.15217 115.869 5.4156V18.2683C115.869 18.5179 115.924 18.7258 116.035 18.8506C116.16 18.9893 116.368 19.1002 116.687 19.1972L116.77 19.225V19.8489H110.933V19.225L111.03 19.1972C111.335 19.1279 111.543 19.017 111.668 18.8784C111.792 18.7397 111.848 18.5456 111.848 18.2822V5.4156C111.848 5.16603 111.792 4.97192 111.681 4.84714C111.557 4.70849 111.349 4.59757 111.03 4.50052ZM135.432 4.56984C134.309 4.08457 132.77 3.84887 130.828 3.84887H121.456V4.47279L121.539 4.50052C121.858 4.59757 122.066 4.70849 122.177 4.84714C122.288 4.97192 122.343 5.16603 122.343 5.4156V18.2822C122.343 18.5456 122.288 18.7397 122.177 18.8784C122.052 19.017 121.844 19.1279 121.539 19.1972L121.442 19.225V19.8489H130.815C132.284 19.8489 133.532 19.7102 134.517 19.433C135.515 19.1557 136.388 18.6981 137.123 18.0603C138.745 16.66 139.577 14.5664 139.577 11.8489C139.577 10.3792 139.328 9.07592 138.842 7.98059C138.149 6.4 136.998 5.24922 135.404 4.56984H135.432ZM134.198 15.5231C133.393 16.3411 132.062 16.757 130.26 16.757H126.35V6.94073H130.26C131.217 6.94073 132.021 7.03779 132.645 7.24576C133.255 7.43987 133.782 7.75876 134.198 8.1747C135.043 9.02046 135.473 10.2683 135.473 11.8489C135.473 13.4295 135.043 14.6634 134.198 15.5231ZM152.887 3.51624C155.411 3.51624 157.546 4.16789 159.238 5.45732V5.44345C161.262 6.99632 162.288 9.20083 162.288 11.9738C162.288 14.5804 161.262 16.6878 159.238 18.2407C157.56 19.5301 155.439 20.1818 152.915 20.1818C150.392 20.1818 148.257 19.5301 146.593 18.2407C144.555 16.6878 143.529 14.5665 143.529 11.849C143.529 9.1315 144.555 6.98245 146.593 5.45732C148.271 4.19562 150.392 3.54397 152.887 3.51624ZM152.915 16.9374C154.496 16.9374 155.799 16.4105 156.797 15.3984V15.4123C157.712 14.4695 158.184 13.291 158.184 11.9183C158.184 10.4071 157.712 9.18696 156.797 8.27188C155.799 7.27361 154.482 6.76061 152.901 6.74675C151.321 6.74675 150.004 7.24588 149.019 8.25802C148.104 9.20083 147.633 10.4071 147.633 11.8351C147.633 13.2632 148.09 14.4556 149.019 15.3984C150.004 16.4244 151.335 16.9374 152.915 16.9374ZM180.049 4.47266L180.146 4.50039C180.465 4.58358 180.673 4.6945 180.784 4.83315C180.895 4.9718 180.95 5.16591 180.95 5.41547V13.776L172.701 5.60958C172.437 5.34615 172.285 5.09658 172.285 4.91634C172.285 4.84701 172.285 4.62518 172.812 4.48653L172.909 4.4588V3.83488H166.6V4.4588L166.697 4.48653C167.016 4.58358 167.224 4.6945 167.335 4.83315C167.446 4.95793 167.501 5.15204 167.501 5.40161V18.2682C167.501 18.5316 167.446 18.7257 167.335 18.8644C167.21 19.003 167.002 19.1139 166.697 19.1833L166.6 19.211V19.8349H172.091V19.211L171.994 19.1833C171.689 19.0862 171.467 18.9753 171.356 18.8366C171.245 18.698 171.189 18.5039 171.189 18.2404V9.61652L179.356 17.6304C179.425 17.7017 179.49 17.7685 179.55 17.831L179.55 17.8311L179.551 17.8313L179.551 17.8322C179.844 18.1335 180.038 18.3337 180.118 18.4484L180.257 18.7673C180.257 18.8366 180.257 19.0585 179.744 19.1555L179.647 19.1833V19.821H185.553V19.1971L185.456 19.1694C185.138 19.0723 184.93 18.9614 184.805 18.8228C184.694 18.698 184.638 18.5039 184.638 18.2404V5.41547C184.638 5.15204 184.694 4.95793 184.805 4.83315C184.916 4.6945 185.138 4.59745 185.443 4.50039L185.54 4.47266V3.84875H180.035V4.47266H180.049ZM212.922 1.10363L212.825 1.0759H212.853V0.38266H219.12V1.08977L219.023 1.1175C218.718 1.20069 218.496 1.3116 218.385 1.43639C218.274 1.56117 218.219 1.74141 218.219 1.99098V18.2544C218.219 18.504 218.274 18.6842 218.385 18.809C218.496 18.9338 218.718 19.0447 219.023 19.1279L219.12 19.1557V19.8489H212.853V19.1557L212.95 19.1279C213.241 19.0447 213.463 18.9477 213.574 18.809C213.685 18.6704 213.741 18.4901 213.741 18.2406V11.4607H202.94V18.2406C202.94 18.4901 202.995 18.6842 203.106 18.809C203.231 18.9477 203.439 19.0447 203.744 19.1279L203.841 19.1557V19.8489H197.574V19.1557L197.671 19.1279C197.976 19.0447 198.198 18.9338 198.309 18.809C198.42 18.6842 198.475 18.504 198.475 18.2544V1.97712C198.475 1.72755 198.42 1.54731 198.309 1.42252C198.198 1.29774 197.976 1.18682 197.671 1.10363L197.574 1.0759V0.38266H203.841V1.0759L203.73 1.10363C203.411 1.18682 203.203 1.29774 203.092 1.42252C202.981 1.54731 202.926 1.74141 202.926 1.99098V8.04992H213.727V1.99098C213.727 1.74141 213.671 1.54731 213.56 1.42252C213.449 1.28387 213.228 1.17296 212.922 1.10363ZM231.584 3.62704C227.91 3.66864 225.248 4.97193 223.695 7.49533C222.877 8.81249 222.461 10.2822 222.461 11.8766C222.461 12.9581 222.655 14.0118 223.058 14.9962C223.515 16.1193 224.181 17.0898 225.04 17.8801C226.662 19.3775 228.867 20.1401 231.598 20.1401C235.245 20.1401 237.921 18.8368 239.529 16.2579C240.347 14.9408 240.763 13.4988 240.763 11.9875C240.763 9.50573 239.889 7.45374 238.184 5.88701C236.562 4.38961 234.343 3.62704 231.584 3.62704ZM237.006 11.9522C237.005 12.6572 236.866 13.3483 236.603 14.0118C236.298 14.7466 235.855 15.3844 235.286 15.8974C234.33 16.757 233.096 17.1869 231.626 17.1869C230.156 17.1869 228.922 16.7432 227.952 15.8974C226.801 14.8853 226.219 13.5265 226.219 11.8766C226.219 10.2267 226.801 8.86795 227.952 7.85582C228.922 6.9962 230.142 6.56639 231.598 6.56639C233.068 6.56639 234.302 7.01006 235.286 7.86968C236.435 8.85265 237.004 10.2227 237.006 11.9522ZM258.246 4.52818H258.149V3.90426H264.347V4.51431L264.25 4.54204C264 4.61137 263.834 4.69456 263.737 4.79161C263.654 4.88866 263.612 5.04118 263.612 5.23528V18.4901C263.612 18.698 263.654 18.8506 263.737 18.9476C263.834 19.0585 264 19.1417 264.25 19.211L264.347 19.2388V19.8488H259.175V19.2388L259.272 19.211C259.508 19.1556 259.675 19.0585 259.772 18.9615C259.869 18.8644 259.91 18.7119 259.91 18.5039V9.39474L253.934 20.0013L248.292 9.42247V18.5039C248.292 18.7119 248.333 18.8644 248.416 18.9615C248.513 19.0724 248.68 19.1556 248.929 19.2249L249.026 19.2526V19.8627H244.146V19.2526L244.243 19.2249C244.493 19.1556 244.673 19.0585 244.756 18.9615C244.839 18.8644 244.881 18.7119 244.881 18.5039V5.22142C244.881 5.02731 244.839 4.8748 244.756 4.77774C244.659 4.68069 244.493 4.5975 244.243 4.52818L244.146 4.50045V3.89039H250.454V4.50045L250.357 4.52818C250.052 4.5975 249.914 4.76388 249.914 5.02731C249.914 5.16596 249.955 5.31847 250.052 5.49872L254.212 13.3878L258.427 5.63736C258.662 5.22142 258.704 5.02731 258.704 4.93026C258.704 4.77774 258.649 4.58364 258.246 4.52818ZM284.063 16.3688C283.993 16.6184 283.91 16.7848 283.799 16.8818C283.702 16.965 283.564 17.0066 283.356 17.0066H273.401V12.9858H279.626C279.82 12.9858 279.973 13.0274 280.07 13.1106C280.181 13.2077 280.264 13.374 280.333 13.6236L280.361 13.7207H280.957V9.49189H280.347L280.319 9.58894C280.25 9.83851 280.167 10.0049 280.056 10.1019C279.959 10.1851 279.806 10.2267 279.612 10.2267H273.387V6.77438H283.064C283.259 6.77438 283.411 6.81597 283.508 6.89916C283.605 6.99622 283.702 7.16259 283.772 7.41216L283.799 7.50922H284.409V3.18339H283.799L283.772 3.28044C283.702 3.53001 283.619 3.69639 283.508 3.79344C283.411 3.87663 283.259 3.91822 283.064 3.91822H268.95V4.52828L269.047 4.55601C269.297 4.62533 269.463 4.70852 269.56 4.81944C269.643 4.91649 269.685 5.069 269.685 5.27698V18.5456C269.685 18.7536 269.643 18.9061 269.56 18.9893C269.477 19.0864 269.297 19.1834 269.047 19.2527L268.95 19.2805V19.8905H283.342C283.536 19.8905 283.688 19.9321 283.785 20.0153C283.883 20.0985 283.98 20.2787 284.049 20.5283L284.077 20.6254H284.687V16.2995H284.077L284.049 16.3966L284.063 16.3688ZM299.8 10.49C300.479 10.698 301.075 10.9753 301.602 11.3497L301.644 11.3358C302.171 11.724 302.6 12.237 302.919 12.8609C303.238 13.4848 303.391 14.1642 303.391 14.8852C303.391 16.0082 303.03 17.0342 302.295 17.9077C301.644 18.698 300.604 19.3081 299.231 19.6824C298.219 19.9736 297.11 20.1122 295.945 20.1122C293.852 20.1122 291.772 19.5992 289.734 18.601C289.179 18.3514 289.054 18.3237 289.027 18.3237C288.999 18.3237 288.902 18.3375 288.638 18.5455L288.569 18.601L288.042 18.3237L289.845 14.2335L290.385 14.497V14.7327C290.385 15.0516 290.524 15.3289 290.829 15.5923C291.314 16.0221 292.077 16.3965 293.089 16.7154C294.115 17.0204 295.099 17.1868 296.015 17.1868C297.013 17.1868 297.872 17.0204 298.566 16.6876C298.94 16.5074 299.245 16.2717 299.467 15.9666C299.689 15.6755 299.8 15.3566 299.8 15.0516C299.8 14.594 299.55 14.2751 299.037 14.0672C298.663 13.9147 297.872 13.776 296.708 13.6512L294.933 13.471C293.741 13.3601 292.895 13.2353 292.396 13.1244C291.897 13.0134 291.398 12.8332 290.898 12.5836C290.177 12.2231 289.609 11.6824 289.193 10.9753C288.833 10.3375 288.638 9.60269 288.638 8.7708C288.638 7.41205 289.124 6.27513 290.053 5.38778C291.273 4.22313 293.117 3.64081 295.529 3.64081C296.527 3.64081 297.484 3.73786 298.358 3.94584C299.217 4.15381 300.326 4.54202 301.616 5.08275C302.212 5.30459 302.351 5.33232 302.378 5.33232C302.503 5.33232 302.656 5.24913 302.85 5.09662L302.919 5.04116L303.432 5.31845L301.436 9.25607L300.909 8.96491L300.923 8.86785V8.70148C300.923 8.50737 300.715 8.24393 300.313 7.9805C298.982 7.05156 297.387 6.58016 295.585 6.58016C294.794 6.58016 294.087 6.67721 293.477 6.87132C293.047 7.02383 292.701 7.2318 292.437 7.52296C292.174 7.80026 292.049 8.10529 292.049 8.42418C292.049 8.95104 292.368 9.31153 293.02 9.50564C293.38 9.60269 294.171 9.71361 295.363 9.83839L297.165 10.0186C298.247 10.1296 299.134 10.2821 299.8 10.49Z" fill="#011638"/>
<path fill-rule="evenodd" clip-rule="evenodd" d="M98.0385 27.6826C94.6277 27.6826 91.8686 30.4417 91.8686 33.8801C91.8686 37.3186 94.6138 40.0223 98.0385 40.0223C100.534 40.0223 102.295 38.9131 102.295 38.9131L102.434 38.6358V34.2406C102.434 34.0743 102.295 33.9079 102.129 33.9079H98.8288C98.6347 33.9079 98.496 34.0465 98.496 34.2406V35.5994C98.496 35.7658 98.6347 35.9044 98.8288 35.9044H100.201V37.3602C99.8548 37.4989 99.1199 37.79 98.1633 37.79C96.0003 37.79 94.295 35.9876 94.295 33.8524C94.295 31.7172 96.0003 29.8593 98.1355 29.8593C99.0783 29.8593 99.9934 30.206 100.728 30.8576C100.811 30.9269 100.881 30.9547 100.964 30.9547C101.047 30.9547 101.116 30.9269 101.186 30.8576L102.253 29.7484V29.2632C101.061 28.2649 99.5913 27.6687 98.0385 27.6687V27.6826ZM57.7195 27.6827H57.5531C57.4006 27.6827 57.3174 27.7659 57.2619 27.8768L51.924 39.4401C51.8269 39.6619 51.9517 39.8837 52.2151 39.8837H53.7125C53.9898 39.8837 54.1423 39.7174 54.2117 39.5371L55.0574 37.6792H60.1874L61.0332 39.5371C61.1579 39.7728 61.2689 39.8837 61.5323 39.8837H63.0297C63.2793 39.8837 63.4179 39.6619 63.3209 39.4401L58.0245 27.8768C57.969 27.7659 57.8997 27.6827 57.7333 27.6827H57.7195ZM55.8893 35.7798L57.5669 32.0085H57.6224L59.3416 35.7798H55.8893ZM80.8181 27.8628H79.2375C79.0434 27.8628 78.9047 28.0153 78.9047 28.1817V32.7293H73.3033V28.1817C73.3033 28.0153 73.1647 27.8628 72.9706 27.8628H71.3761C71.2097 27.8628 71.0434 28.0153 71.0434 28.1817V39.5508C71.0434 39.7172 71.1959 39.8697 71.3761 39.8697H72.9706C73.1647 39.8697 73.3033 39.7172 73.3033 39.5508V34.8091H78.9047V39.5508C78.9047 39.7172 79.0434 39.8697 79.2375 39.8697H80.8181C80.9844 39.8697 81.1508 39.7172 81.1508 39.5508V28.1817C81.1508 28.0153 80.9983 27.8628 80.8181 27.8628ZM86.3088 27.8628H87.9033C88.0696 27.8628 88.2222 28.0153 88.2222 28.1817V39.5508C88.2222 39.7172 88.0696 39.8697 87.9033 39.8697H86.3088C86.1286 39.8697 85.9761 39.7172 85.9761 39.5508V28.1817C85.9761 28.0153 86.1424 27.8628 86.3088 27.8628ZM114.856 27.8628H116.437C116.603 27.8628 116.756 28.0153 116.756 28.1817V39.5508C116.756 39.7172 116.603 39.8697 116.437 39.8697H114.856C114.676 39.8697 114.537 39.7172 114.537 39.5508V34.8091H108.936V39.5508C108.936 39.7172 108.811 39.8697 108.617 39.8697H107.023C106.842 39.8697 106.69 39.7172 106.69 39.5508V28.1817C106.69 28.0153 106.856 27.8628 107.023 27.8628H108.617C108.797 27.8628 108.936 28.0153 108.936 28.1817V32.7293H114.537V28.1817C114.537 28.0153 114.662 27.8628 114.856 27.8628ZM128.915 27.8626H121.927C121.733 27.8626 121.595 28.0152 121.595 28.1815V39.5507C121.595 39.7171 121.733 39.8696 121.927 39.8696H128.915C129.109 39.8696 129.248 39.7171 129.248 39.5507V38.1365C129.248 37.9701 129.109 37.8037 128.915 37.8037H123.827V34.7951H128.069C128.236 34.7951 128.388 34.6564 128.388 34.4762V33.0481C128.388 32.8817 128.236 32.7292 128.069 32.7292H123.827V29.9146H128.915C129.109 29.9146 129.248 29.7621 129.248 29.5819V28.1677C129.248 28.0013 129.109 27.8488 128.915 27.8488V27.8626ZM133.74 27.8626H138.649L138.662 27.8488C140.728 27.8488 142.406 29.4987 142.406 31.5507C142.406 33.1313 141.366 34.4207 139.869 35.0169L142.226 39.3843C142.35 39.6062 142.226 39.8835 141.935 39.8835H140.132C139.98 39.8835 139.855 39.7309 139.855 39.7309L137.567 35.1833H135.654V39.5646C135.654 39.7309 135.487 39.8835 135.321 39.8835H133.74C133.546 39.8835 133.408 39.7309 133.408 39.5646V28.1954C133.408 28.0152 133.546 27.8626 133.74 27.8626ZM135.681 29.9146V33.3254H138.482C139.397 33.3254 140.188 32.5351 140.188 31.5784C140.188 30.6633 139.397 29.9146 138.482 29.9146H135.681ZM154.843 27.6964C152.111 27.6964 150.974 29.4711 150.974 30.9963C150.974 33.0205 152.597 34.0465 154.205 34.6982C155.647 35.2805 156.382 35.8767 156.382 36.764C156.382 37.4989 155.716 38.0812 154.815 38.0812C153.762 38.0812 152.447 37.1695 152.245 37.0292L152.222 37.0136C152.153 36.9581 152.07 36.9304 151.986 36.9304C151.862 36.9304 151.723 36.9859 151.64 37.1245L151.016 38.1921C150.863 38.4694 150.947 38.5526 151.099 38.7051C151.446 39.024 152.721 40.05 154.884 40.05C157.311 40.05 158.836 38.4139 158.836 36.6531C158.836 34.4347 156.909 33.4365 155.245 32.771C153.858 32.2025 153.22 31.6618 153.22 30.8437C153.22 30.2892 153.761 29.6375 154.732 29.6375C155.626 29.6375 156.778 30.3666 157.063 30.5469L157.063 30.5471L157.064 30.5476C157.088 30.5627 157.106 30.5738 157.116 30.5803C157.172 30.6219 157.241 30.6358 157.297 30.6358C157.449 30.6358 157.616 30.5249 157.713 30.3723L158.364 29.3879C158.489 29.2216 158.434 28.9165 158.267 28.8195C157.921 28.5699 156.59 27.6687 154.829 27.6687L154.843 27.6964ZM161.747 27.8628H169.234C169.414 27.8628 169.553 28.0153 169.553 28.1817V29.5959C169.553 29.7761 169.428 29.9286 169.234 29.9286H166.614V39.5647C166.614 39.7449 166.447 39.8975 166.281 39.8975H164.687C164.52 39.8975 164.368 39.7311 164.368 39.5647V29.9286H161.747C161.553 29.9286 161.414 29.7623 161.414 29.5959V28.1817C161.414 28.0153 161.553 27.8628 161.747 27.8628ZM177.318 27.6827H177.151C176.999 27.6827 176.916 27.7659 176.86 27.8768L171.522 39.4401C171.411 39.6619 171.55 39.8837 171.813 39.8837H173.311C173.588 39.8837 173.74 39.7174 173.81 39.5371L174.656 37.6792H179.786L180.631 39.5371C180.756 39.7728 180.867 39.8837 181.13 39.8837H182.628C182.891 39.8837 183.03 39.6619 182.919 39.4401L177.623 27.8768C177.567 27.7659 177.498 27.6827 177.331 27.6827H177.318ZM175.487 35.7798L177.165 32.0085H177.221L178.94 35.7798H175.487ZM186.51 27.6826H186.94L186.954 27.6687L194.094 35.2666H194.108V28.1678C194.108 27.9876 194.246 27.8351 194.441 27.8351H196.021C196.201 27.8351 196.354 28.0015 196.354 28.1678V39.7311C196.354 39.8975 196.188 40.0361 196.021 40.0361H195.605L188.423 32.1609H188.409V39.5509C188.409 39.7172 188.271 39.8698 188.077 39.8698H186.51C186.33 39.8698 186.177 39.7172 186.177 39.5509V27.9876C186.177 27.8212 186.344 27.6826 186.51 27.6826ZM205.214 27.8628H201.138C200.971 27.8628 200.833 28.0153 200.833 28.1955V39.5647C200.833 39.7311 200.971 39.8836 201.138 39.8836H205.214C208.528 39.8836 211.245 37.1938 211.245 33.8524C211.245 30.511 208.528 27.8628 205.214 27.8628ZM203.051 37.79V29.9425H205.006C207.238 29.9425 208.874 31.6201 208.874 33.8662C208.874 36.1124 207.238 37.8039 205.006 37.8039H203.051V37.79ZM219.3 27.6827H219.466H219.48C219.647 27.6827 219.716 27.7659 219.771 27.8768L225.068 39.4401C225.179 39.6619 225.04 39.8837 224.777 39.8837H223.279C223.016 39.8837 222.905 39.7728 222.78 39.5371L221.934 37.6792H216.804L215.959 39.5371C215.889 39.7174 215.737 39.8837 215.459 39.8837H213.962C213.699 39.8837 213.56 39.6619 213.671 39.4401L219.009 27.8768C219.064 27.7659 219.147 27.6827 219.3 27.6827ZM219.314 32.0085L217.636 35.7798H221.089L219.369 32.0085H219.314ZM233.221 27.8626H228.312C228.118 27.8626 227.98 28.0152 227.98 28.1954V39.5646C227.98 39.7309 228.118 39.8835 228.312 39.8835H229.893C230.059 39.8835 230.212 39.7309 230.212 39.5646V35.1833H232.111L234.399 39.7309C234.399 39.7309 234.524 39.8835 234.676 39.8835H236.479C236.77 39.8835 236.895 39.6062 236.77 39.3843L234.413 35.0169C235.91 34.4207 236.95 33.1313 236.95 31.5507C236.95 29.4987 235.273 27.8488 233.207 27.8488L233.221 27.8626ZM230.226 33.3254V29.9146H233.027C233.942 29.9146 234.732 30.6633 234.732 31.5784C234.732 32.5351 233.942 33.3254 233.027 33.3254H230.226ZM241.442 27.8628H245.519C248.832 27.8628 251.55 30.511 251.55 33.8524C251.55 37.1938 248.832 39.8836 245.519 39.8836H241.442C241.276 39.8836 241.137 39.7311 241.137 39.5647V28.1955C241.137 28.0153 241.276 27.8628 241.442 27.8628ZM245.311 29.9425H243.356V37.79V37.8039H245.311C247.543 37.8039 249.179 36.1124 249.179 33.8662C249.179 31.6201 247.543 29.9425 245.311 29.9425Z" fill="#66BEE5"/>
</g>
<defs>
<clipPath id="clip0_1190_1406">
<rect width="303.418" height="40.0001" fill="white" transform="translate(0 0.0498047)"/>
</clipPath>
</defs>
</svg>
